<?xml version="1.0" encoding="UTF-8" standalone="no"?>
<!-- Created with Inkscape (http://www.inkscape.org/) -->

<svg
   width="210mm"
   height="297mm"
   viewBox="0 0 210 297"
   version="1.1"
   id="svg1"
   inkscape:export-filename="image creation penguin"
   inkscape:export-xdpi="96"
   inkscape:export-ydpi="96"
   inkscape:version="1.4.2 (f4327f4, 2025-05-13)"
   sodipodi:docname="pengiun image creation.svg"
   xmlns:inkscape="http://www.inkscape.org/namespaces/inkscape"
   xmlns:sodipodi="http://sodipodi.sourceforge.net/DTD/sodipodi-0.dtd"
   xmlns="http://www.w3.org/2000/svg"
   xmlns:svg="http://www.w3.org/2000/svg">
  <sodipodi:namedview
     id="namedview1"
     pagecolor="#ffffff"
     bordercolor="#000000"
     borderopacity="0.25"
     inkscape:showpageshadow="2"
     inkscape:pageopacity="0.0"
     inkscape:pagecheckerboard="0"
     inkscape:deskcolor="#d1d1d1"
     inkscape:document-units="mm"
     inkscape:zoom="0.71891835"
     inkscape:cx="397.12437"
     inkscape:cy="561.25984"
     inkscape:window-width="1920"
     inkscape:window-height="1009"
     inkscape:window-x="-8"
     inkscape:window-y="-8"
     inkscape:window-maximized="1"
     inkscape:current-layer="layer1" />
  <defs
     id="defs1" />
  <g
     inkscape:label="Layer 1"
     inkscape:groupmode="layer"
     id="layer1">
    <ellipse
       style="fill:#000000;stroke-width:0.264583"
       id="path1"
       cx="105.2565"
       cy="124.02602"
       rx="35.330853"
       ry="58.148697" />
    <ellipse
       style="fill:#000000;stroke-width:0.264583"
       id="path2"
       cx="71.213753"
       cy="136.35503"
       rx="4.6003718"
       ry="19.68959" />
    <ellipse
       style="fill:#000000;stroke-width:0.264583"
       id="ellipse3"
       cx="71.213753"
       cy="136.35503"
       rx="4.6003718"
       ry="19.68959" />
    <ellipse
       style="fill:#000000;stroke-width:0.264583"
       id="ellipse4"
       cx="138.19516"
       cy="136.35503"
       rx="4.6003718"
       ry="19.68959" />
    <ellipse
       style="fill:#f2f2f2;stroke-width:0.264583"
       id="path4"
       cx="98.815987"
       cy="105.62453"
       rx="7.5446095"
       ry="11.776952" />
    <ellipse
       style="fill:#f2f2f2;stroke-width:0.264583"
       id="ellipse5"
       cx="112.43308"
       cy="106.36059"
       rx="7.5446095"
       ry="11.776952" />
    <ellipse
       style="fill:#1a1a1a;stroke-width:0.264583"
       id="path5"
       cx="111.69703"
       cy="107.46468"
       rx="4.6003718"
       ry="5.1524162" />
    <ellipse
       style="fill:#1a1a1a;stroke-width:0.264583"
       id="ellipse6"
       cx="99.920074"
       cy="107.09664"
       rx="4.6003718"
       ry="5.1524162" />
    <ellipse
       style="fill:#ffe680;stroke-width:0.264583"
       id="path6"
       cx="105.62453"
       cy="120.34573"
       rx="7.7286248"
       ry="1.8401487" />
    <ellipse
       style="fill:#ffaaaa;stroke-width:0.264583"
       id="path7"
       cx="87.039032"
       cy="116.66542"
       rx="4.6003718"
       ry="2.5762081" />
    <ellipse
       style="fill:#ffaaaa;stroke-width:0.264583"
       id="path8"
       cx="123.47398"
       cy="117.03346"
       rx="4.2323418"
       ry="2.5762081" />
    <ellipse
       style="fill:#ffd42a;stroke-width:0.264583"
       id="path9"
       cx="96.975838"
       cy="183.46283"
       rx="7.9126391"
       ry="5.336431" />
    <ellipse
       style="fill:#ffd42a;stroke-width:0.264583"
       id="path10"
       cx="112.06505"
       cy="182.91077"
       rx="6.4405203"
       ry="5.8884759" />
    <path
       style="fill:#ffffff;stroke-width:0.264583"
       id="path11"
       sodipodi:type="arc"
       sodipodi:cx="106.17657"
       sodipodi:cy="151.62827"
       sodipodi:rx="23.00186"
       sodipodi:ry="26.866173"
       sodipodi:start="0"
       sodipodi:end="6.2746116"
       sodipodi:arc-type="slice"
       d="m 129.17843,151.62827 a 23.00186,26.866173 0 0 1 -22.95256,26.86611 23.00186,26.866173 0 0 1 -23.050951,-26.75094 23.00186,26.866173 0 0 1 22.853741,-26.98079 23.00186,26.866173 0 0 1 23.14892,26.63528 l -23.00101,0.23034 z" />
    <path
       style="fill:#ffffff;stroke-width:0.264583"
       id="path12"
       sodipodi:type="arc"
       sodipodi:cx="101.76022"
       sodipodi:cy="146.84386"
       sodipodi:rx="0.18401487"
       sodipodi:ry="2.9442379"
       sodipodi:start="0"
       sodipodi:end="6.2746116"
       sodipodi:arc-type="slice"
       d="m 101.94424,146.84386 a 0.18401487,2.9442379 0 0 1 -0.18362,2.94423 0.18401487,2.9442379 0 0 1 -0.18441,-2.93161 0.18401487,2.9442379 0 0 1 0.18283,-2.9568 0.18401487,2.9442379 0 0 1 0.18519,2.91893 l -0.18401,0.0252 z" />
  </g>
</svg>
